# xmcd
#
# Track frame offsets: 
#        182
#        20240
#        48470
#        75290
#        100937
#        119070
#        140297
#        163110
#        183580
#        209595
#        247317
#        265985
#
# Disc length: 3877 seconds
#
# Revision: 6
# Processed by: cddbd v1.5.2PL0 Copyright (c) Steve Scherf et al.
# Submitted via: ExactAudioCopyFreeDBPlugin 1.0
#
DISCID=b50f230c
DTITLE=Various Artist - Smooth Grooves:  A Sensual Collection [Rhino]
DYEAR=1995
DGENRE=SMB
TTITLE0=Debra Laws - Very Special
TTITLE1=The Gap Band - Outstanding
TTITLE2=Mtume - Juicy Fruit
TTITLE3=The Isley Brothers - Between the Sheets
TTITLE4=Marvin Gaye - Sexual Healing
TTITLE5=Patrice Rushen - Forget Me Nots
TTITLE6=Evelyn King - Betcha She Don't Love You
TTITLE7=The Jones Girls - You Gonna Make Me Love Somebody Else
TTITLE8=Mary Jane Girls - All Night Long
TTITLE9=Betty Wright - Tonight is the Night (Live)
TTITLE10=Rufus - Hollywood (ft Chaka Khan)
TTITLE11=Atlantic Starr - Send for Me
EXTD=
EXTT0=
EXTT1=
EXTT2=
EXTT3=
EXTT4=
EXTT5=
EXTT6=
EXTT7=
EXTT8=
EXTT9=
EXTT10=
EXTT11=
PLAYORDER=
